<mxfile host="app.diagrams.net" modified="2023-11-21T13:55:15.917Z" agent="Mozilla/5.0 (Windows NT 10.0; Win64; x64) AppleWebKit/537.36 (KHTML, like Gecko) Chrome/119.0.0.0 Safari/537.36" version="22.1.3" etag="nMP9ZfoPU9nG8Kfj8Gof" type="device">
  <diagram id="Z0MOi0x5MnaSduRfk4Dk" name="Page-1">
    <mxGraphModel dx="882" dy="578" grid="1" gridSize="10" guides="1" tooltips="1" connect="1" arrows="1" fold="1" page="1" pageScale="1" pageWidth="850" pageHeight="1100" math="0" shadow="0">
      <root>
        <mxCell id="0" />
        <mxCell id="1" parent="0" />
        <mxCell id="OcpIxwltWfFwhl7YVhND-15" style="edgeStyle=orthogonalEdgeStyle;rounded=0;orthogonalLoop=1;jettySize=auto;html=1;exitX=0.5;exitY=0;exitDx=0;exitDy=0;entryX=0;entryY=0.5;entryDx=0;entryDy=0;" edge="1" parent="1" source="OcpIxwltWfFwhl7YVhND-1" target="OcpIxwltWfFwhl7YVhND-2">
          <mxGeometry relative="1" as="geometry" />
        </mxCell>
        <mxCell id="OcpIxwltWfFwhl7YVhND-16" style="edgeStyle=orthogonalEdgeStyle;rounded=0;orthogonalLoop=1;jettySize=auto;html=1;exitX=1;exitY=0.5;exitDx=0;exitDy=0;entryX=0;entryY=0.5;entryDx=0;entryDy=0;" edge="1" parent="1" source="OcpIxwltWfFwhl7YVhND-1" target="OcpIxwltWfFwhl7YVhND-3">
          <mxGeometry relative="1" as="geometry" />
        </mxCell>
        <mxCell id="OcpIxwltWfFwhl7YVhND-17" style="edgeStyle=orthogonalEdgeStyle;rounded=0;orthogonalLoop=1;jettySize=auto;html=1;exitX=0.5;exitY=1;exitDx=0;exitDy=0;entryX=0;entryY=0.5;entryDx=0;entryDy=0;" edge="1" parent="1" source="OcpIxwltWfFwhl7YVhND-1" target="OcpIxwltWfFwhl7YVhND-4">
          <mxGeometry relative="1" as="geometry" />
        </mxCell>
        <mxCell id="OcpIxwltWfFwhl7YVhND-1" value="File" style="rounded=1;whiteSpace=wrap;html=1;" vertex="1" parent="1">
          <mxGeometry x="40" y="150" width="120" height="60" as="geometry" />
        </mxCell>
        <mxCell id="OcpIxwltWfFwhl7YVhND-18" style="edgeStyle=orthogonalEdgeStyle;rounded=0;orthogonalLoop=1;jettySize=auto;html=1;exitX=1;exitY=0.5;exitDx=0;exitDy=0;" edge="1" parent="1" source="OcpIxwltWfFwhl7YVhND-2" target="OcpIxwltWfFwhl7YVhND-8">
          <mxGeometry relative="1" as="geometry" />
        </mxCell>
        <mxCell id="OcpIxwltWfFwhl7YVhND-2" value="Block 1" style="rounded=1;whiteSpace=wrap;html=1;" vertex="1" parent="1">
          <mxGeometry x="200" y="40" width="80" height="40" as="geometry" />
        </mxCell>
        <mxCell id="OcpIxwltWfFwhl7YVhND-19" style="edgeStyle=orthogonalEdgeStyle;rounded=0;orthogonalLoop=1;jettySize=auto;html=1;exitX=1;exitY=0.5;exitDx=0;exitDy=0;entryX=0;entryY=0.5;entryDx=0;entryDy=0;" edge="1" parent="1" source="OcpIxwltWfFwhl7YVhND-3" target="OcpIxwltWfFwhl7YVhND-9">
          <mxGeometry relative="1" as="geometry" />
        </mxCell>
        <mxCell id="OcpIxwltWfFwhl7YVhND-3" value="Block 2" style="rounded=1;whiteSpace=wrap;html=1;" vertex="1" parent="1">
          <mxGeometry x="200" y="160" width="80" height="40" as="geometry" />
        </mxCell>
        <mxCell id="OcpIxwltWfFwhl7YVhND-20" style="edgeStyle=orthogonalEdgeStyle;rounded=0;orthogonalLoop=1;jettySize=auto;html=1;exitX=1;exitY=0.5;exitDx=0;exitDy=0;entryX=0;entryY=0.5;entryDx=0;entryDy=0;" edge="1" parent="1" source="OcpIxwltWfFwhl7YVhND-4" target="OcpIxwltWfFwhl7YVhND-10">
          <mxGeometry relative="1" as="geometry" />
        </mxCell>
        <mxCell id="OcpIxwltWfFwhl7YVhND-4" value="Block 3" style="rounded=1;whiteSpace=wrap;html=1;" vertex="1" parent="1">
          <mxGeometry x="200" y="280" width="80" height="40" as="geometry" />
        </mxCell>
        <mxCell id="OcpIxwltWfFwhl7YVhND-21" style="edgeStyle=orthogonalEdgeStyle;rounded=0;orthogonalLoop=1;jettySize=auto;html=1;exitX=1;exitY=0.5;exitDx=0;exitDy=0;entryX=0;entryY=0.5;entryDx=0;entryDy=0;" edge="1" parent="1" source="OcpIxwltWfFwhl7YVhND-8" target="OcpIxwltWfFwhl7YVhND-11">
          <mxGeometry relative="1" as="geometry" />
        </mxCell>
        <mxCell id="OcpIxwltWfFwhl7YVhND-8" value="Compressed block 1" style="rounded=1;whiteSpace=wrap;html=1;" vertex="1" parent="1">
          <mxGeometry x="360" y="40" width="80" height="40" as="geometry" />
        </mxCell>
        <mxCell id="OcpIxwltWfFwhl7YVhND-22" style="edgeStyle=orthogonalEdgeStyle;rounded=0;orthogonalLoop=1;jettySize=auto;html=1;exitX=1;exitY=0.5;exitDx=0;exitDy=0;" edge="1" parent="1" source="OcpIxwltWfFwhl7YVhND-9" target="OcpIxwltWfFwhl7YVhND-12">
          <mxGeometry relative="1" as="geometry" />
        </mxCell>
        <mxCell id="OcpIxwltWfFwhl7YVhND-9" value="Compressed block 2" style="rounded=1;whiteSpace=wrap;html=1;" vertex="1" parent="1">
          <mxGeometry x="360" y="160" width="80" height="40" as="geometry" />
        </mxCell>
        <mxCell id="OcpIxwltWfFwhl7YVhND-23" style="edgeStyle=orthogonalEdgeStyle;rounded=0;orthogonalLoop=1;jettySize=auto;html=1;exitX=1;exitY=0.5;exitDx=0;exitDy=0;" edge="1" parent="1" source="OcpIxwltWfFwhl7YVhND-10" target="OcpIxwltWfFwhl7YVhND-13">
          <mxGeometry relative="1" as="geometry" />
        </mxCell>
        <mxCell id="OcpIxwltWfFwhl7YVhND-10" value="Compressed block 3" style="rounded=1;whiteSpace=wrap;html=1;" vertex="1" parent="1">
          <mxGeometry x="360" y="280" width="80" height="40" as="geometry" />
        </mxCell>
        <mxCell id="OcpIxwltWfFwhl7YVhND-24" style="edgeStyle=orthogonalEdgeStyle;rounded=0;orthogonalLoop=1;jettySize=auto;html=1;exitX=1;exitY=0.25;exitDx=0;exitDy=0;entryX=0.5;entryY=0;entryDx=0;entryDy=0;" edge="1" parent="1" source="OcpIxwltWfFwhl7YVhND-11" target="OcpIxwltWfFwhl7YVhND-14">
          <mxGeometry relative="1" as="geometry" />
        </mxCell>
        <mxCell id="OcpIxwltWfFwhl7YVhND-11" value="Encrypted block 1" style="rounded=1;whiteSpace=wrap;html=1;" vertex="1" parent="1">
          <mxGeometry x="520" y="40" width="80" height="40" as="geometry" />
        </mxCell>
        <mxCell id="OcpIxwltWfFwhl7YVhND-25" style="edgeStyle=orthogonalEdgeStyle;rounded=0;orthogonalLoop=1;jettySize=auto;html=1;exitX=1;exitY=0.5;exitDx=0;exitDy=0;" edge="1" parent="1" source="OcpIxwltWfFwhl7YVhND-12" target="OcpIxwltWfFwhl7YVhND-14">
          <mxGeometry relative="1" as="geometry" />
        </mxCell>
        <mxCell id="OcpIxwltWfFwhl7YVhND-12" value="Encrypted block 2" style="rounded=1;whiteSpace=wrap;html=1;" vertex="1" parent="1">
          <mxGeometry x="520" y="160" width="80" height="40" as="geometry" />
        </mxCell>
        <mxCell id="OcpIxwltWfFwhl7YVhND-26" style="edgeStyle=orthogonalEdgeStyle;rounded=0;orthogonalLoop=1;jettySize=auto;html=1;exitX=1;exitY=0.5;exitDx=0;exitDy=0;entryX=0.5;entryY=1;entryDx=0;entryDy=0;" edge="1" parent="1" source="OcpIxwltWfFwhl7YVhND-13" target="OcpIxwltWfFwhl7YVhND-14">
          <mxGeometry relative="1" as="geometry" />
        </mxCell>
        <mxCell id="OcpIxwltWfFwhl7YVhND-13" value="Encrypted block 3" style="rounded=1;whiteSpace=wrap;html=1;" vertex="1" parent="1">
          <mxGeometry x="520" y="280" width="80" height="40" as="geometry" />
        </mxCell>
        <mxCell id="OcpIxwltWfFwhl7YVhND-14" value="Cloud storage" style="rounded=1;whiteSpace=wrap;html=1;" vertex="1" parent="1">
          <mxGeometry x="680" y="150" width="120" height="60" as="geometry" />
        </mxCell>
      </root>
    </mxGraphModel>
  </diagram>
</mxfile>
